# xmcd
#
# Track frame offsets: 
#        150
#        16616
#        29276
#        45424
#        63893
#        77495
#        90589
#        108148
#        126553
#        141046
#        151540
#        184769
#        194361
#        213710
#        228937
#        249963
#
# Disc length: 3552 seconds
#
# Revision: 0
# Processed by: cddbd v1.5.1PL2 Copyright (c) Steve Scherf et al.
# Submitted via: ExactAudioCopy v0.95b3
#
DISCID=be0dde10
DTITLE=Rainer - The Rainer Collection CD2
DYEAR=2006
DGENRE=Blues
TTITLE0=Love Buys Love
TTITLE1=Miss The Mississippi
TTITLE2=Drive, Drive, Drive
TTITLE3=De-Railed
TTITLE4=That's How Things Get Done
TTITLE5=Cheer Down
TTITLE6=Long Way
TTITLE7=Mush Mind Blues
TTITLE8=The Unseen Enemy
TTITLE9=Waves Of Sorrow
TTITLE10=Instrumental #13
TTITLE11=Stones Throw Away
TTITLE12=Curiouser And Curiouser
TTITLE13=How I Wanted You
TTITLE14=Joy Is Now
TTITLE15=I Am A Sinner
EXTD=
EXTT0=
EXTT1=
EXTT2=
EXTT3=
EXTT4=
EXTT5=
EXTT6=
EXTT7=
EXTT8=
EXTT9=
EXTT10=
EXTT11=
EXTT12=
EXTT13=
EXTT14=
EXTT15=
PLAYORDER=
